<svg xmlns="http://www.w3.org/2000/svg" width="41" height="41" fill="none"><path fill="#1E21A3" d="M35.789 27.802a1.25 1.25 0 0 1-.886-.362l-4.69-4.628h-11.89a6.237 6.237 0 0 1-6.237-6.237V9.08a1.248 1.248 0 0 1 2.495 0v7.495a3.742 3.742 0 0 0 3.743 3.742h12.475c.33.005.646.134.886.362l4.99 4.99a1.248 1.248 0 0 1-.886 2.133Z"/><path fill="#B8B9FF" d="M4.601 37.782a1.247 1.247 0 0 1-1.247-1.248V19.07a6.237 6.237 0 0 1 6.237-6.238h13.723a6.237 6.237 0 0 1 6.237 6.238v8.495a1.248 1.248 0 0 1-2.495 0V19.07a3.742 3.742 0 0 0-3.742-3.743H9.59A3.742 3.742 0 0 0 5.85 19.07v17.464a1.247 1.247 0 0 1-1.248 1.248Z"/><path fill="#B8B9FF" d="M4.664 37.782a1.25 1.25 0 0 1-1.255-1.248 1.248 1.248 0 0 1 .37-.886l4.99-4.99a1.31 1.31 0 0 1 .885-.361h13.66a3.742 3.742 0 0 0 3.742-3.743 1.247 1.247 0 0 1 2.495 0 6.239 6.239 0 0 1-6.237 6.238H10.178L5.55 37.42a1.248 1.248 0 0 1-.886.361Z"/><path fill="#1E21A3" d="M36.154 23.694a1.247 1.247 0 0 0 2.13-.882V9.09a6.238 6.238 0 0 0-6.238-6.237H18.324a6.238 6.238 0 0 0-6.238 6.237 1.248 1.248 0 0 0 2.495 0 3.743 3.743 0 0 1 3.743-3.742h13.722A3.743 3.743 0 0 1 35.79 9.09v13.722c0 .331.131.648.365.882Z"/></svg>